<svg width="18" height="19" viewBox="0 0 18 19" fill="none" xmlns="http://www.w3.org/2000/svg">
<path d="M15 13H6C5.5 13 5.2 12.7 5 12.3L2.2 2H1C0.4 2 0 1.6 0 1C0 0.4 0.4 0 1 0H3C3.5 0 3.8 0.3 4 0.7L4.6 3H17C17.3 3 17.6 3.1 17.8 3.4C18 3.7 18 3.9 18 4.2L16 12.2C15.9 12.7 15.5 13 15 13ZM6.8 11H14.3L15.8 5H5.1L6.8 11Z" fill="white"/>
<path d="M15.5 15.8C15.9 15.8 16.3 16.1 16.3 16.6C16.3 17.1 16 17.4 15.5 17.4C15 17.4 14.7 17.1 14.7 16.6C14.7 16.1 15.1 15.8 15.5 15.8ZM15.5 14C14.1 14 13 15.1 13 16.5C13 17.9 14.1 19 15.5 19C16.9 19 18 17.9 18 16.5C18 15.1 16.9 14 15.5 14Z" fill="white"/>
<path d="M5.5 15.8C5.9 15.8 6.3 16.1 6.3 16.6C6.3 17.1 6 17.4 5.5 17.4C5 17.4 4.7 17.1 4.7 16.6C4.7 16.1 5.1 15.8 5.5 15.8ZM5.5 14C4.1 14 3 15.1 3 16.5C3 17.9 4.1 19 5.5 19C6.9 19 8 17.9 8 16.5C8 15.1 6.9 14 5.5 14Z" fill="white"/>
</svg>
