<svg width="302" height="31" viewBox="0 0 302 31" fill="none" xmlns="http://www.w3.org/2000/svg">
<path fill-rule="evenodd" clip-rule="evenodd" d="M17.4097 0.0580358H24.3735L16.0169 8.41468H9.05303L17.4097 0.0580358ZM51.4746 0H58.4385L50.0818 8.35665H43.118L51.4746 0ZM8.35664 9.22713H15.3205L6.96387 17.5838H0L8.35664 9.22713ZM25.6503 0.0580358H32.6141L24.2575 8.41468H17.2936L25.6503 0.0580358ZM59.5411 0.0580358H66.505L58.1483 8.41468H51.1844L59.5411 0.0580358ZM42.3635 9.05304H49.3274L40.9708 17.4097H34.0069L42.3635 9.05304ZM68.362 26.5788H75.3259L66.9692 18.2221H60.0054L68.362 26.5788ZM34.4712 26.6368H41.435L33.0784 18.2802H26.1145L34.4712 26.6368ZM42.6537 26.5788H49.6176L41.2029 18.2221H34.239L42.6537 26.5788ZM8.41468 26.6948H15.3785L7.0219 18.3382H0.0580323L8.41468 26.6948ZM25.4762 17.6418H32.44L24.0834 9.28516H17.1195L25.4762 17.6418ZM59.425 17.4677H66.3889L58.0323 9.11106H51.0684L59.425 17.4677Z" fill="#AFAFAF"/>
<path fill-rule="evenodd" clip-rule="evenodd" d="M24.8959 8.93697L33.2526 0.580322L41.6092 8.93697L33.2526 17.2936L24.8959 8.93697ZM58.7287 8.93697L67.0854 0.580322L75.442 8.93697L67.0854 17.2936L58.7287 8.93697ZM67.6076 17.8739L75.9643 9.51729L84.2629 17.8739L75.9643 26.2886L67.6076 17.8739ZM41.9574 17.8159L50.314 9.45926L58.6707 17.8159L50.314 26.1726L41.9574 17.8159ZM7.89246 17.99L16.2491 9.63336L24.6057 17.99L16.2491 26.3466L7.89246 17.99Z" fill="white"/>
<path fill-rule="evenodd" clip-rule="evenodd" d="M99.3515 27.043H107.186V6.03537H107.418L112.003 27.043H119.663L124.421 6.03537H124.654V27.043H132.894V0.348206H119.257L116.239 14.9723H116.065L112.931 0.348206H99.2935V27.043H99.3515ZM147.054 27.043H154.946V14.2759C154.946 8.29862 149.84 6.55766 145.023 6.55766C142.469 6.55766 139.278 6.96388 136.55 7.77634V12.9992C139.742 11.4904 142.702 11.4324 142.818 11.4324C144.559 11.4324 146.996 11.7806 146.996 13.8697V14.5081H145.777C141.251 14.5081 134.345 14.5661 134.345 21.4719C134.345 24.7798 136.318 27.4493 140.612 27.4493C142.527 27.4493 145.081 27.1011 146.88 24.5477H146.996V27.043H147.054ZM147.054 18.3382V19.4408C147.054 21.7041 145.835 22.6326 144.617 22.6326C143.398 22.6326 142.644 21.8201 142.644 20.7175C142.644 18.1641 145.371 18.2802 146.59 18.2802H147.054V18.3382ZM165.508 7.07994H157.036V27.043H165.508V18.2802H165.682L170.615 27.043H180.132L173.981 16.8874L180.132 7.07994H170.615L165.682 15.8428H165.508V7.07994ZM196.207 20.7756C194.408 21.7041 193.074 21.8201 192.319 21.8201C189.534 21.8201 187.851 19.847 187.851 17.1195C187.851 14.1018 189.708 12.3609 192.319 12.3609C193.132 12.3609 194.35 12.4769 196.033 13.2894V7.5442C193.538 6.84781 191.333 6.61569 189.592 6.61569C180.829 6.61569 178.566 12.593 178.566 16.9454C178.566 22.6906 182.047 27.5073 189.708 27.5073C191.681 27.5073 193.77 27.3912 196.207 26.5207V20.7756ZM210.077 7.07994L206.073 16.4231H205.841V7.07994H197.948V27.043H206.479L210.425 17.6998H210.599V27.043H218.492V7.07994H210.077ZM255.748 6.61569C248.959 6.61569 244.606 10.5039 244.606 17.0615C244.606 23.6191 248.959 27.5073 255.748 27.5073C262.596 27.5073 266.891 23.6191 266.891 17.0615C266.949 10.5039 262.596 6.61569 255.748 6.61569ZM255.748 12.3609C257.605 12.3609 257.605 15.0304 257.605 17.0615C257.605 19.1507 257.547 21.8201 255.748 21.8201C253.891 21.8201 253.833 19.1507 253.833 17.0615C253.833 15.0304 253.891 12.3609 255.748 12.3609ZM268.457 27.043H276.292V6.03537H276.524L281.109 27.043H288.769L293.527 6.03537H293.76V27.043H302V0.348206H288.363L285.403 14.9723H285.229L282.037 0.348206H268.399V27.043H268.457ZM241.763 7.07994H224.179V13.6376C224.179 16.133 224.121 19.0926 222.032 21.3559H219.943V30.641H227.777V27.043H236.424V30.641H244.258V21.3559H241.821V7.07994H241.763ZM233.928 21.3559H229.518C230.911 19.2087 231.027 16.8874 231.027 14.9143V12.8251H233.928V21.3559Z" fill="white"/>
</svg>
