<svg width="32" height="32" viewBox="0 0 32 32" fill="none" xmlns="http://www.w3.org/2000/svg">
<path d="M32 6.43528C29.9871 6.52805 30.031 6.52048 29.8035 6.53953L30.9956 3.13499C30.9956 3.13499 27.2744 4.50388 26.3311 4.74876C23.8535 2.52195 20.1709 2.42356 17.5381 4.04173C15.3821 5.36716 14.2249 7.64329 14.6108 10.3037C10.4148 9.72141 6.87939 7.7324 4.08813 4.37937L3.20532 3.31907L2.54565 4.53049C1.71191 6.06126 1.43506 7.8115 1.76587 9.45872C1.90161 10.1345 2.13232 10.779 2.4519 11.3825L1.69458 11.0891L1.60474 12.3545C1.51367 13.6399 1.94165 15.1404 2.74976 16.3679C2.97729 16.7136 3.27026 17.0932 3.6416 17.4678L3.25024 17.4077L3.72778 18.8576C4.35547 20.7627 5.65918 22.2365 7.35107 23.0559C5.66138 23.7729 4.29639 24.2304 2.05273 24.9685L0 25.6433L1.896 26.6799C2.6189 27.0752 5.17334 28.3952 7.69727 28.7912C13.3076 29.6711 19.6243 28.9546 23.8767 25.1247C27.4585 21.8989 28.6338 17.3103 28.3896 12.5351C28.3528 11.8122 28.5508 11.1223 28.9473 10.5928C29.7415 9.53245 31.9951 6.44236 32 6.43528ZM27.448 9.4697C26.7896 10.3489 26.4597 11.4717 26.5188 12.6308C26.7651 17.4475 25.4546 21.1828 22.6233 23.7326C19.3159 26.7114 13.9812 27.8806 7.98755 26.9404C6.9021 26.7702 5.78027 26.3891 4.85181 26.0085C6.73291 25.3613 8.18555 24.7844 10.5315 23.674L13.8064 22.124L10.1907 21.8926C8.45874 21.7817 7.0166 20.9424 6.13013 19.5796C6.60083 19.5522 7.05469 19.4761 7.50659 19.3501L10.9551 18.3896L7.47778 17.5381C5.78809 17.1242 4.82495 16.1133 4.31445 15.3379C3.97925 14.8283 3.76025 14.3064 3.62891 13.8252C3.97754 13.9187 4.38403 13.9853 5.03955 14.0503L8.25806 14.3686L5.70801 12.3794C3.87061 10.9463 3.13428 8.79319 3.67407 6.72337C9.40845 12.6711 16.1414 12.2241 16.8191 12.3813C16.6699 10.9324 16.666 10.9289 16.627 10.791C15.759 7.72288 17.6611 6.16502 18.519 5.63767C20.311 4.53635 23.1555 4.37034 25.1257 6.18479C25.5513 6.57639 26.1267 6.73045 26.6653 6.59666C27.1487 6.47654 27.5454 6.34934 27.9338 6.21091L27.1252 8.52L28.1575 8.52073C27.9626 8.78196 27.729 9.0947 27.448 9.4697Z" fill="white"/>
</svg>
