<svg width="32" height="20" viewBox="0 0 32 20" fill="none" xmlns="http://www.w3.org/2000/svg">
<path d="M28.5394 13.1688L28.522 13.1526C28.2483 12.9 27.4097 12.0839 27.127 11.7273C26.795 11.2823 26.8716 10.9907 27.1204 10.5538C27.4347 10.0017 28.0646 9.15485 28.7312 8.25808C30.8662 5.38675 32.2446 3.39898 31.9609 1.98704L31.808 1.23288L23.9232 1.23631C23.8955 1.31067 23.4841 3.11816 21.7478 6.19595C20.4887 8.4276 19.6629 9.12868 19.3721 9.25245L19.3271 9.23875C19.2324 9.12183 19.067 8.80627 18.999 7.99291C18.9281 7.14091 18.9909 6.10935 19.0519 5.1118C19.123 3.94203 19.1844 2.93176 19.0374 2.20891L18.7979 1.03132C18.5086 0.985085 17.4491 0.576328 14.4973 0.545262C11.9418 0.519087 11.191 0.888217 10.8224 1.21356L9.60298 2.28964L11.1443 2.80823C11.7309 3.00563 11.9256 3.23337 12.0854 4.36229C12.1896 5.0981 12.2441 6.33465 12.1316 7.43861C11.9699 9.02153 11.5822 9.31605 11.5621 9.33171C11.4954 9.30896 10.9291 9.06116 9.94594 6.98264C9.26394 5.5411 8.6661 3.83587 8.22921 2.59076C7.72921 1.16488 7.81923 1.46845 7.56556 0.794772L-0.0626221 0.794528L0.431018 2.07144C2.48899 7.39996 4.3772 11.5612 6.90411 14.5499C9.69594 17.852 13.1656 19.581 17.8393 19.581H18.7786V18.6416C18.7786 17.7635 18.8513 17.1311 19.0071 16.6517C19.1023 16.3596 19.2287 16.1182 19.3615 15.865C19.5587 15.4922 19.7515 15.3324 19.8567 15.3087C19.9521 15.2869 20.1199 15.3569 20.3058 15.4956C20.8395 15.8936 21.2632 16.4166 21.7118 16.9704C22.3591 17.7696 23.0284 18.5957 24.0903 19.1365C24.6705 19.432 25.7341 19.5812 26.3195 19.5812C26.4743 19.5812 31.9931 19.581 32 19.581L31.9596 18.603C31.8995 17.1407 30.7485 15.3121 28.5394 13.1688ZM26.3559 17.7023H26.3408C25.9371 17.7089 25.1668 17.5766 24.9428 17.4626C24.2368 17.103 23.7434 16.4936 23.1717 15.7882C22.67 15.1685 22.1512 14.5279 21.4288 13.9895C20.8447 13.5538 20.3141 13.4264 19.8929 13.4264C19.7246 13.4264 19.5734 13.4467 19.4437 13.476C18.9547 13.5861 18.2554 13.9379 17.6994 14.9895C17.5426 15.2887 17.3647 15.6275 17.2206 16.0707C17.0697 16.5345 16.9758 17.0499 16.931 17.6769C13.409 17.4768 10.6607 16.0834 8.3388 13.3371C6.18004 10.7835 4.48165 7.21185 2.68297 2.67246C2.81311 2.67246 6.07412 2.67295 6.26663 2.67295C6.32559 2.83856 6.38919 3.02007 6.4567 3.21234C6.92759 4.55554 7.57265 6.39482 8.33268 7.96331C9.42099 10.2094 10.4149 11.2111 11.555 11.2111C12.1243 11.2111 12.6348 10.9699 13.0313 10.5132C13.5966 9.86229 13.9249 8.78792 14.035 7.22848C14.1218 5.99878 14.0411 4.77398 13.9457 4.09908C13.8669 3.54379 13.7546 2.96087 13.4807 2.43861C14.6482 2.38601 16.2116 2.46919 17.2021 2.61131C17.2921 3.10152 17.2334 4.06508 17.1766 4.99732C17.0394 7.24927 16.8977 9.57315 18.0898 10.6605C18.2994 10.8518 18.5218 10.9543 18.5281 10.9584L19.1348 11.1446C19.3689 11.0724 20.7248 11.7603 23.2923 7.27961C24.115 5.84394 24.8809 4.18959 25.2933 3.10911C26.2498 3.10715 29.5083 3.11082 29.8911 3.11131C29.3488 4.3048 28.0636 6.0071 27.2236 7.13699C26.4912 8.12183 25.8589 8.97236 25.4878 9.62403C24.7984 10.8346 24.9144 11.9137 25.6323 12.8655L25.6436 12.8801C26.0443 13.3902 27.0338 14.3344 27.239 14.5247C28.7258 15.9682 29.4423 17.0051 29.7833 17.7021H26.3559V17.7023Z" fill="white"/>
</svg>
