<svg width="32" height="32" viewBox="0 0 32 32" fill="none" xmlns="http://www.w3.org/2000/svg">
<path d="M4.6875 28.1875H27.3125C29.8972 28.1875 32 26.0847 32 23.5V8.5C32 5.91528 29.8972 3.8125 27.3125 3.8125H4.6875C2.10278 3.8125 0 5.91528 0 8.5V23.5C0 26.0847 2.10278 28.1875 4.6875 28.1875ZM1.875 8.5C1.875 6.94922 3.13672 5.6875 4.6875 5.6875H27.3125C28.8633 5.6875 30.125 6.94922 30.125 8.5V23.5C30.125 25.0508 28.8633 26.3125 27.3125 26.3125H4.6875C3.13672 26.3125 1.875 25.0508 1.875 23.5V8.5Z" fill="white"/>
<path d="M11.3125 9.71924V22.4629L22.5938 15.9866L11.3125 9.71924ZM13.1875 12.9058L18.7812 16.0134L13.1875 19.2246V12.9058Z" fill="white"/>
</svg>
